<svg xmlns="http://www.w3.org/2000/svg" width="18.701" height="18.144" viewBox="0 0 18.701 18.144">
  <path id="angle-double-left-solid" d="M34,104.058l6.379-7.709a.991.991,0,0,1,1.59,0l1.06,1.281a1.561,1.561,0,0,1,0,1.922l-4.517,5.47,4.522,5.464a1.561,1.561,0,0,1,0,1.922l-1.06,1.287a.991.991,0,0,1-1.59,0L34,105.986A1.563,1.563,0,0,1,34,104.058Zm-9.006,1.927,6.379,7.709a.991.991,0,0,0,1.59,0l1.06-1.281a1.561,1.561,0,0,0,0-1.922l-4.517-5.47,4.522-5.464a1.561,1.561,0,0,0,0-1.922l-1.06-1.287a.991.991,0,0,0-1.59,0L25,104.058A1.563,1.563,0,0,0,24.993,105.986Z" transform="translate(-24.662 -95.95)" fill="#707070"/>
</svg>
