<svg xmlns="http://www.w3.org/2000/svg" width="16" height="16" viewBox="0 0 16 16">
  <g id="Group_104" data-name="Group 104" transform="translate(-372 -188)">
    <path id="short-broom" d="M15.723.278a.945.945,0,0,0-1.337,0L9.24,5.424,8.312,4.5a.791.791,0,0,0-1.119,0l-.558.558L2.584,6.02.426,6.535A.554.554,0,0,0,.108,7.4,39.843,39.843,0,0,0,8.6,15.893a.554.554,0,0,0,.867-.318l.644-2.7.836-3.506.558-.558a.791.791,0,0,0,0-1.119l-.927-.927,5.147-5.147A.945.945,0,0,0,15.723.278ZM8.585,14.5q-.676-.52-1.326-1.069l.73-2.057L6.546,12.812q-.779-.689-1.519-1.418l.725-1.145L4.6,10.97q-.678-.688-1.321-1.41L4.73,8.112l-2.069.734q-.594-.7-1.156-1.43L6.439,6.24,9.761,9.562Z" transform="translate(372 187.999)" fill="#707070"/>
  </g>
</svg>
