<svg xmlns="http://www.w3.org/2000/svg" width="18" height="13.783" viewBox="0 0 18 13.783">
  <path id="sign-in-alt-solid" d="M14.625,77.5H11.672a.423.423,0,0,1-.422-.422V75.672a.423.423,0,0,1,.422-.422h2.953a1.124,1.124,0,0,0,1.125-1.125v-6.75a1.124,1.124,0,0,0-1.125-1.125H11.672a.423.423,0,0,1-.422-.422V64.422A.423.423,0,0,1,11.672,64h2.953A3.376,3.376,0,0,1,18,67.375v6.75A3.376,3.376,0,0,1,14.625,77.5Zm-1.652-7.066L7.066,64.527a.845.845,0,0,0-1.441.6V68.5H.844A.842.842,0,0,0,0,69.344v3.375a.842.842,0,0,0,.844.844H5.625v3.375a.845.845,0,0,0,1.441.6l5.906-5.906A.851.851,0,0,0,12.973,70.434Z" transform="translate(0 -64)" fill="#707070"/>
</svg>
