<svg xmlns="http://www.w3.org/2000/svg" width="13" height="13" viewBox="0 0 13 13">
  <g id="Group_102" data-name="Group 102" transform="translate(-378 -263)">
    <circle id="Ellipse_42" data-name="Ellipse 42" cx="5.5" cy="5.5" r="5.5" transform="translate(379 264)" fill="#fff"/>
    <path id="times-circle" d="M14.5,8A6.5,6.5,0,1,0,21,14.5,6.5,6.5,0,0,0,14.5,8Zm3.187,8.206a.315.315,0,0,1,0,.446l-1.038,1.035a.315.315,0,0,1-.446,0l-1.7-1.719-1.706,1.719a.315.315,0,0,1-.446,0l-1.035-1.038a.315.315,0,0,1,0-.446l1.719-1.7-1.719-1.706a.315.315,0,0,1,0-.446l1.038-1.038a.315.315,0,0,1,.446,0l1.7,1.722,1.706-1.719a.315.315,0,0,1,.446,0l1.038,1.038a.315.315,0,0,1,0,.446l-1.722,1.7Z" transform="translate(370 255)" fill="#c96565"/>
  </g>
</svg>
