<svg xmlns="http://www.w3.org/2000/svg" xmlns:xlink="http://www.w3.org/1999/xlink" width="5" height="14" viewBox="0 0 5 14">
  <defs>
    <clipPath id="clip-path">
      <rect width="5" height="14" fill="none"/>
    </clipPath>
  </defs>
  <g id="Repeat_Grid_3" data-name="Repeat Grid 3" clip-path="url(#clip-path)">
    <g transform="translate(-18 -86)">
      <circle id="Ellipse_3" data-name="Ellipse 3" cx="1" cy="1" r="1" transform="translate(18 86)" fill="#9ac58b"/>
      <circle id="Ellipse_4" data-name="Ellipse 4" cx="1" cy="1" r="1" transform="translate(21 86)" fill="#9ac58b"/>
      <circle id="Ellipse_5" data-name="Ellipse 5" cx="1" cy="1" r="1" transform="translate(18 89)" fill="#9ac58b"/>
      <circle id="Ellipse_7" data-name="Ellipse 7" cx="1" cy="1" r="1" transform="translate(21 89)" fill="#9ac58b"/>
    </g>
    <g transform="translate(-18 -80)">
      <circle id="Ellipse_3-2" data-name="Ellipse 3" cx="1" cy="1" r="1" transform="translate(18 86)" fill="#9ac58b"/>
      <circle id="Ellipse_4-2" data-name="Ellipse 4" cx="1" cy="1" r="1" transform="translate(21 86)" fill="#9ac58b"/>
      <circle id="Ellipse_5-2" data-name="Ellipse 5" cx="1" cy="1" r="1" transform="translate(18 89)" fill="#9ac58b"/>
      <circle id="Ellipse_7-2" data-name="Ellipse 7" cx="1" cy="1" r="1" transform="translate(21 89)" fill="#9ac58b"/>
    </g>
    <g transform="translate(-18 -74)">
      <circle id="Ellipse_3-3" data-name="Ellipse 3" cx="1" cy="1" r="1" transform="translate(18 86)" fill="#9ac58b"/>
      <circle id="Ellipse_4-3" data-name="Ellipse 4" cx="1" cy="1" r="1" transform="translate(21 86)" fill="#9ac58b"/>
      <circle id="Ellipse_5-3" data-name="Ellipse 5" cx="1" cy="1" r="1" transform="translate(18 89)" fill="#9ac58b"/>
      <circle id="Ellipse_7-3" data-name="Ellipse 7" cx="1" cy="1" r="1" transform="translate(21 89)" fill="#9ac58b"/>
    </g>
  </g>
</svg>
